<svg width="28" height="21" viewBox="0 0 28 21" fill="none" xmlns="http://www.w3.org/2000/svg">
<path d="M13.739 5.56117C15.6828 7.58289 17.0435 8.99809 17.0435 10.0089C17.0435 11.0198 15.6828 12.435 13.739 14.4567C12.6699 15.5687 11.0176 17.2871 9.6569 17.2871C8.19901 17.2871 7.32428 16.2763 7.32428 14.9622C7.32428 13.7491 8.3934 12.7383 8.97655 12.1318C9.94847 11.1209 10.5316 10.6155 10.5316 10.0089C10.5316 9.40243 9.94847 8.89701 8.97655 7.88615C8.3934 7.27963 7.32428 6.26877 7.32428 5.05574C7.32428 3.53946 8.3934 2.73077 9.5597 2.73077C10.5316 2.73077 11.5035 3.2362 13.739 5.56117Z" fill="#2E4FEB"/>
<path d="M4.21413 7.38071C2.56186 7.38071 0.229248 8.897 0.229248 10.0089C0.229248 11.1209 2.56186 12.6372 4.21413 12.6372C5.67201 12.6372 7.1299 11.4241 7.1299 10.0089C7.1299 8.59374 5.67201 7.38071 4.21413 7.38071Z" fill="#2E4FEB"/>
<path d="M27.4431 10.0089C27.4431 11.4241 25.402 13.7491 23.4582 15.7708C21.2228 18.0958 19.4733 20.1175 17.7239 20.1175C16.8491 20.1175 15.3912 19.511 15.3912 17.5904C15.3912 16.3773 16.4604 15.1643 17.0435 14.5578C18.0154 13.5469 20.348 11.3231 20.348 10.11C20.348 8.897 18.0154 6.67311 17.0435 5.66226C16.4604 5.05574 15.3912 3.74163 15.3912 2.62968C15.3912 0.607968 16.8491 0.102539 17.7239 0.102539C19.4733 0.102539 21.1256 2.12425 23.361 4.44923C25.402 6.26877 27.4431 8.59374 27.4431 10.0089Z" fill="#2E4FEB"/>
</svg>
